<?xml version="1.0" encoding="iso-8859-1"?>
<!-- Generator: Adobe Illustrator 19.0.0, SVG Export Plug-In . SVG Version: 6.00 Build 0)  -->
<svg version="1.1" id="Capa_1" xmlns="http://www.w3.org/2000/svg" xmlns:xlink="http://www.w3.org/1999/xlink" x="0px" y="0px"
	 width="35px"  heigth="35px" fill="#ffffff" viewBox="0 0 448 448" style="enable-background:new 0 0 448 448;" xml:space="preserve">
<g>
	<g>
		<circle cx="224" cy="248" r="32"/>
	</g>
</g>
<g>
	<g>
		<path d="M393.291,175.997l-59.939,19.98c-24.355,8.125-50.684,6.844-74.141-3.57c-22.391-9.953-48.039-9.961-70.398-0.008
			l-3.031,1.344c-13.176,5.859-27.438,8.828-41.734,8.828c-8.871,0-17.75-1.148-26.398-3.453l-64.524-17.207
			c-1.67,6.779-2.931,13.714-3.788,20.774l9.406,3.135c85.917,28.634,146.336,104.316,155.79,193.918
			c3.136,0.167,6.291,0.262,9.468,0.262s6.332-0.095,9.468-0.262c9.454-89.602,69.874-165.284,155.79-193.918l9.406-3.135
			C397.556,193.556,395.747,184.644,393.291,175.997z M224,296c-26.469,0-48-21.531-48-48s21.531-48,48-48s48,21.531,48,48
			S250.469,296,224,296z"/>
	</g>
</g>
<g>
	<g>
		<path d="M224,0C100.484,0,0,100.484,0,224s100.484,224,224,224s224-100.484,224-224S347.516,0,224,0z M224,416
			c-105.867,0-192-86.133-192-192S118.133,32,224,32s192,86.133,192,192S329.867,416,224,416z"/>
	</g>
</g>
<g>
	<g>
		<path d="M399.876,219.14l-5.556,1.852c-78.876,26.291-134.657,95.203-144.579,177.107C334.627,385.603,400,312.302,400,224
			C400,222.37,399.921,220.759,399.876,219.14z"/>
	</g>
</g>
<g>
	<g>
		<path d="M53.68,220.992l-5.556-1.852C48.079,220.759,48,222.37,48,224c0,88.302,65.373,161.603,150.258,174.099
			C188.336,316.195,132.556,247.283,53.68,220.992z"/>
	</g>
</g>
<g>
	<g>
		<path d="M224,48C147.061,48,81.54,97.646,57.672,166.57l64.101,17.094c19.07,5.086,39.496,3.469,57.512-4.547l3.031-1.344
			c26.484-11.781,56.879-11.781,83.371,0c19.816,8.813,42.043,9.883,62.602,3.031l59.938-19.979C362.781,94.905,298.785,48,224,48z"
			/>
	</g>
</g>
<g>
</g>
<g>
</g>
<g>
</g>
<g>
</g>
<g>
</g>
<g>
</g>
<g>
</g>
<g>
</g>
<g>
</g>
<g>
</g>
<g>
</g>
<g>
</g>
<g>
</g>
<g>
</g>
<g>
</g>
</svg>
